<svg width="42" height="42" viewBox="0 0 42 42" fill="none" xmlns="http://www.w3.org/2000/svg">
<g id="Group 3581">
<g id="Rectangle 27" filter="url(#filter0_b)">
<rect width="42" height="42" rx="4" fill="#EEEEEE" fill-opacity="0.01"/>
<rect width="42" height="42" rx="4" fill="white" fill-opacity="0.15"/>
</g>
<path id="facebook" d="M23.2546 33.3895H18.6273V22.0253H14.7612V17.5737H18.6273V14.2932C18.6273 12.4187 19.1545 10.9738 20.2089 9.95829C21.2633 8.9428 22.6691 8.43506 24.4264 8.43506C25.8322 8.43506 26.9843 8.49364 27.8827 8.61079V12.5352L25.4808 12.5935C24.6218 12.5935 24.0361 12.7693 23.7235 13.1207C23.4109 13.4722 23.2546 13.9994 23.2546 14.7023V17.5723H27.7062L27.1207 22.0239H23.2546V33.3881L23.2546 33.3895Z" fill="white"/>
</g>
<defs>
<filter id="filter0_b" x="-81.5485" y="-81.5485" width="205.097" height="205.097" filterUnits="userSpaceOnUse" color-interpolation-filters="sRGB">
<feFlood flood-opacity="0" result="BackgroundImageFix"/>
<feGaussianBlur in="BackgroundImage" stdDeviation="40.7742"/>
<feComposite in2="SourceAlpha" operator="in" result="effect1_backgroundBlur"/>
<feBlend mode="normal" in="SourceGraphic" in2="effect1_backgroundBlur" result="shape"/>
</filter>
</defs>
</svg>
