<svg width="43" height="43" viewBox="0 0 43 43" fill="none" xmlns="http://www.w3.org/2000/svg">
<g id="Group 3580">
<g id="Rectangle 47" filter="url(#filter0_b)">
<rect width="43" height="43" rx="4" fill="#EEEEEE" fill-opacity="0.01"/>
<rect width="43" height="43" rx="4" fill="white" fill-opacity="0.15"/>
</g>
<g id="bxl-instagram-alt">
<path id="Path 24" fill-rule="evenodd" clip-rule="evenodd" d="M34.6799 15.7299C34.6649 14.5939 34.4524 13.4691 34.0519 12.4059C33.3493 10.5924 31.9154 9.15851 30.1019 8.45592C29.0524 8.06196 27.9437 7.84893 26.8229 7.82592C25.3799 7.76092 24.9229 7.74292 21.2589 7.74292C17.5949 7.74292 17.1259 7.74292 15.6939 7.82592C14.5738 7.84916 13.4658 8.06218 12.4169 8.45592C10.603 9.15809 9.16905 10.5921 8.46688 12.4059C8.07235 13.4545 7.85996 14.5628 7.83888 15.6829C7.77388 17.1269 7.75488 17.5849 7.75488 21.2479C7.75488 24.9109 7.75488 25.3789 7.83888 26.8129C7.86088 27.9349 8.07288 29.0419 8.46688 30.0929C9.17017 31.9059 10.6043 33.339 12.4179 34.0409C13.4639 34.4507 14.5721 34.6789 15.6949 34.7159C17.1389 34.7809 17.5969 34.7999 21.2599 34.7999C24.9229 34.7999 25.3929 34.7999 26.8249 34.7159C27.9456 34.694 29.0544 34.4817 30.1039 34.0879C31.9169 33.3845 33.3504 31.9509 34.0539 30.1379C34.4489 29.0879 34.6599 27.9809 34.6819 26.8579C34.7469 25.4149 34.7659 24.9579 34.7659 21.2929C34.7629 17.6299 34.7629 17.1649 34.6789 15.7289L34.6799 15.7299ZM21.2509 28.1759C17.4199 28.1759 14.3169 25.0729 14.3169 21.2419C14.3169 17.4109 17.4199 14.3079 21.2509 14.3079C25.0807 14.3079 28.1854 17.4126 28.1854 21.2424C28.1854 25.0722 25.0807 28.1769 21.2509 28.1769V28.1759ZM28.4619 15.6669C27.5669 15.6669 26.8449 14.9439 26.8449 14.0499C26.8449 13.1574 27.5684 12.4339 28.4609 12.4339C29.3534 12.4339 30.0769 13.1574 30.0769 14.0499C30.0769 14.9439 29.3539 15.6669 28.4619 15.6669Z" fill="white"/>
<path id="Path 25" d="M25.7551 21.2408C25.7551 23.7285 23.7387 25.7453 21.2511 25.7458C18.7631 25.7458 16.7461 23.7289 16.7461 21.2408C16.7456 18.7528 18.7626 16.7358 21.2506 16.7358C23.7386 16.7358 25.7556 18.7528 25.7556 21.2408H25.7551Z" fill="white"/>
</g>
</g>
<defs>
<filter id="filter0_b" x="-81.5485" y="-81.5485" width="206.097" height="206.097" filterUnits="userSpaceOnUse" color-interpolation-filters="sRGB">
<feFlood flood-opacity="0" result="BackgroundImageFix"/>
<feGaussianBlur in="BackgroundImage" stdDeviation="40.7742"/>
<feComposite in2="SourceAlpha" operator="in" result="effect1_backgroundBlur"/>
<feBlend mode="normal" in="SourceGraphic" in2="effect1_backgroundBlur" result="shape"/>
</filter>
</defs>
</svg>
