<svg width="216" height="59" viewBox="0 0 216 59" fill="none" xmlns="http://www.w3.org/2000/svg">
<path d="M10.4404 52.8491V42.2913L0.5 44.121L10.4404 52.8491Z" fill="#BC832E"/>
<g clip-path="url(#clip0)">
<path d="M0.5 4.1513C0.5 1.94217 2.29086 0.151306 4.5 0.151306H211.5C213.709 0.151306 215.5 1.94217 215.5 4.15131V40.1513C215.5 42.3604 213.709 44.1513 211.5 44.1513H0.5V4.1513Z" fill="#E09F3E"/>
<path d="M25.3867 13.0888L30.9648 27.0107L36.543 13.0888H39.4609V30.1513H37.2109V23.5068L37.4219 16.3349L31.8203 30.1513H30.0977L24.5078 16.3701L24.7305 23.5068V30.1513H22.4805V13.0888H25.3867ZM42.5195 23.6943C42.5195 22.4521 42.7617 21.3349 43.2461 20.3427C43.7383 19.3505 44.418 18.5849 45.2852 18.0458C46.1602 17.5068 47.1562 17.2372 48.2734 17.2372C50 17.2372 51.3945 17.8349 52.457 19.0302C53.5273 20.2255 54.0625 21.8154 54.0625 23.7997V23.9521C54.0625 25.1865 53.8242 26.2958 53.3477 27.2802C52.8789 28.2568 52.2031 29.0185 51.3203 29.5654C50.4453 30.1122 49.4375 30.3857 48.2969 30.3857C46.5781 30.3857 45.1836 29.788 44.1133 28.5927C43.0508 27.3974 42.5195 25.8154 42.5195 23.8466V23.6943ZM44.6992 23.9521C44.6992 25.3583 45.0234 26.4872 45.6719 27.3388C46.3281 28.1904 47.2031 28.6161 48.2969 28.6161C49.3984 28.6161 50.2734 28.1865 50.9219 27.3271C51.5703 26.4599 51.8945 25.249 51.8945 23.6943C51.8945 22.3036 51.5625 21.1786 50.8984 20.3193C50.2422 19.4521 49.3672 19.0185 48.2734 19.0185C47.2031 19.0185 46.3398 19.4443 45.6836 20.2958C45.0273 21.1474 44.6992 22.3661 44.6992 23.9521ZM64.6094 28.8974C63.7656 29.8896 62.5273 30.3857 60.8945 30.3857C59.543 30.3857 58.5117 29.9951 57.8008 29.2138C57.0977 28.4247 56.7422 27.2607 56.7344 25.7216V17.4716H58.9023V25.663C58.9023 27.5849 59.6836 28.5458 61.2461 28.5458C62.9023 28.5458 64.0039 27.9286 64.5508 26.6943V17.4716H66.7188V30.1513H64.6562L64.6094 28.8974ZM72.0742 17.4716L72.1445 19.0654C73.1133 17.8466 74.3789 17.2372 75.9414 17.2372C78.6211 17.2372 79.9727 18.749 79.9961 21.7724V30.1513H77.8281V21.7607C77.8203 20.8466 77.6094 20.1708 77.1953 19.7333C76.7891 19.2958 76.1523 19.0771 75.2852 19.0771C74.582 19.0771 73.9648 19.2646 73.4336 19.6396C72.9023 20.0146 72.4883 20.5068 72.1914 21.1161V30.1513H70.0234V17.4716H72.0742ZM86.207 14.4013V17.4716H88.5742V19.1474H86.207V27.0107C86.207 27.5185 86.3125 27.9013 86.5234 28.1591C86.7344 28.4091 87.0938 28.5341 87.6016 28.5341C87.8516 28.5341 88.1953 28.4872 88.6328 28.3935V30.1513C88.0625 30.3076 87.5078 30.3857 86.9688 30.3857C86 30.3857 85.2695 30.0927 84.7773 29.5068C84.2852 28.9208 84.0391 28.0888 84.0391 27.0107V19.1474H81.7305V17.4716H84.0391V14.4013H86.207ZM98.9453 30.1513C98.8203 29.9013 98.7188 29.456 98.6406 28.8154C97.6328 29.8622 96.4297 30.3857 95.0312 30.3857C93.7812 30.3857 92.7539 30.0341 91.9492 29.331C91.1523 28.6201 90.7539 27.7216 90.7539 26.6357C90.7539 25.3154 91.2539 24.2919 92.2539 23.5654C93.2617 22.831 94.6758 22.4638 96.4961 22.4638H98.6055V21.4677C98.6055 20.7099 98.3789 20.1083 97.9258 19.663C97.4727 19.2099 96.8047 18.9833 95.9219 18.9833C95.1484 18.9833 94.5 19.1786 93.9766 19.5693C93.4531 19.9599 93.1914 20.4326 93.1914 20.9872H91.0117C91.0117 20.3544 91.2344 19.7451 91.6797 19.1591C92.1328 18.5654 92.7422 18.0966 93.5078 17.7529C94.2812 17.4091 95.1289 17.2372 96.0508 17.2372C97.5117 17.2372 98.6562 17.6044 99.4844 18.3388C100.312 19.0654 100.742 20.0693 100.773 21.3505V27.1865C100.773 28.3505 100.922 29.2763 101.219 29.9638V30.1513H98.9453ZM95.3477 28.499C96.0273 28.499 96.6719 28.3232 97.2812 27.9716C97.8906 27.6201 98.332 27.163 98.6055 26.6005V23.999H96.9062C94.25 23.999 92.9219 24.7763 92.9219 26.331C92.9219 27.0107 93.1484 27.5419 93.6016 27.9247C94.0547 28.3076 94.6367 28.499 95.3477 28.499ZM106.527 30.1513H104.359V17.4716H106.527V30.1513ZM104.184 14.1083C104.184 13.7568 104.289 13.4599 104.5 13.2177C104.719 12.9755 105.039 12.8544 105.461 12.8544C105.883 12.8544 106.203 12.9755 106.422 13.2177C106.641 13.4599 106.75 13.7568 106.75 14.1083C106.75 14.4599 106.641 14.7529 106.422 14.9872C106.203 15.2216 105.883 15.3388 105.461 15.3388C105.039 15.3388 104.719 15.2216 104.5 14.9872C104.289 14.7529 104.184 14.4599 104.184 14.1083ZM112.059 17.4716L112.129 19.0654C113.098 17.8466 114.363 17.2372 115.926 17.2372C118.605 17.2372 119.957 18.749 119.98 21.7724V30.1513H117.812V21.7607C117.805 20.8466 117.594 20.1708 117.18 19.7333C116.773 19.2958 116.137 19.0771 115.27 19.0771C114.566 19.0771 113.949 19.2646 113.418 19.6396C112.887 20.0146 112.473 20.5068 112.176 21.1161V30.1513H110.008V17.4716H112.059ZM139.188 22.2646H131.793V28.3115H140.383V30.1513H129.543V13.0888H140.266V14.9404H131.793V20.4247H139.188V22.2646ZM147.098 22.1005L149.91 17.4716H152.441L148.293 23.7411L152.57 30.1513H150.062L147.133 25.4052L144.203 30.1513H141.684L145.961 23.7411L141.812 17.4716H144.32L147.098 22.1005ZM165.461 23.9521C165.461 25.8818 165.02 27.4365 164.137 28.6161C163.254 29.7958 162.059 30.3857 160.551 30.3857C159.012 30.3857 157.801 29.8974 156.918 28.9208V35.0263H154.75V17.4716H156.73L156.836 18.8779C157.719 17.7841 158.945 17.2372 160.516 17.2372C162.039 17.2372 163.242 17.8115 164.125 18.9599C165.016 20.1083 165.461 21.706 165.461 23.7529V23.9521ZM163.293 23.706C163.293 22.2763 162.988 21.1474 162.379 20.3193C161.77 19.4911 160.934 19.0771 159.871 19.0771C158.559 19.0771 157.574 19.6591 156.918 20.8232V26.8818C157.566 28.038 158.559 28.6161 159.895 28.6161C160.934 28.6161 161.758 28.206 162.367 27.3857C162.984 26.5576 163.293 25.331 163.293 23.706ZM173.488 30.3857C171.77 30.3857 170.371 29.8232 169.293 28.6982C168.215 27.5654 167.676 26.0536 167.676 24.163V23.7646C167.676 22.5068 167.914 21.3857 168.391 20.4013C168.875 19.4091 169.547 18.6357 170.406 18.081C171.273 17.5185 172.211 17.2372 173.219 17.2372C174.867 17.2372 176.148 17.7802 177.062 18.8661C177.977 19.9521 178.434 21.5068 178.434 23.5302V24.4326H169.844C169.875 25.6826 170.238 26.6943 170.934 27.4677C171.637 28.2333 172.527 28.6161 173.605 28.6161C174.371 28.6161 175.02 28.4599 175.551 28.1474C176.082 27.8349 176.547 27.4208 176.945 26.9052L178.27 27.9365C177.207 29.5693 175.613 30.3857 173.488 30.3857ZM173.219 19.0185C172.344 19.0185 171.609 19.3388 171.016 19.9794C170.422 20.6122 170.055 21.5029 169.914 22.6513H176.266V22.4872C176.203 21.3857 175.906 20.5341 175.375 19.9326C174.844 19.3232 174.125 19.0185 173.219 19.0185ZM187.082 19.4169C186.754 19.3622 186.398 19.3349 186.016 19.3349C184.594 19.3349 183.629 19.9404 183.121 21.1513V30.1513H180.953V17.4716H183.062L183.098 18.9365C183.809 17.8036 184.816 17.2372 186.121 17.2372C186.543 17.2372 186.863 17.2919 187.082 17.4013V19.4169ZM192.613 14.4013V17.4716H194.98V19.1474H192.613V27.0107C192.613 27.5185 192.719 27.9013 192.93 28.1591C193.141 28.4091 193.5 28.5341 194.008 28.5341C194.258 28.5341 194.602 28.4872 195.039 28.3935V30.1513C194.469 30.3076 193.914 30.3857 193.375 30.3857C192.406 30.3857 191.676 30.0927 191.184 29.5068C190.691 28.9208 190.445 28.0888 190.445 27.0107V19.1474H188.137V17.4716H190.445V14.4013H192.613Z" fill="white"/>
</g>
<defs>
<clipPath id="clip0">
<rect width="215" height="58.2656" fill="white" transform="translate(0.5 0.151306)"/>
</clipPath>
</defs>
</svg>
